<?xml version="1.0" encoding="UTF-8" standalone="no"?>
<svg
   width="36"
   height="32"
   version="1.1"
   viewBox="0 0 36 32"
   id="svg13"
   sodipodi:docname="favicon-dark-pending.svg"
   inkscape:version="1.4 (e7c3feb1, 2024-10-09)"
   xmlns:inkscape="http://www.inkscape.org/namespaces/inkscape"
   xmlns:sodipodi="http://sodipodi.sourceforge.net/DTD/sodipodi-0.dtd"
   xmlns:xlink="http://www.w3.org/1999/xlink"
   xmlns="http://www.w3.org/2000/svg"
   xmlns:svg="http://www.w3.org/2000/svg"
   xmlns:rdf="http://www.w3.org/1999/02/22-rdf-syntax-ns#"
   xmlns:cc="http://creativecommons.org/ns#"
   xmlns:dc="http://purl.org/dc/elements/1.1/">
  <sodipodi:namedview
     id="namedview13"
     pagecolor="#ffffff"
     bordercolor="#000000"
     borderopacity="0.25"
     inkscape:showpageshadow="2"
     inkscape:pageopacity="0.0"
     inkscape:pagecheckerboard="0"
     inkscape:deskcolor="#d1d1d1"
     inkscape:zoom="11.28"
     inkscape:cx="17.996454"
     inkscape:cy="15.824468"
     inkscape:window-width="1472"
     inkscape:window-height="862"
     inkscape:window-x="0"
     inkscape:window-y="38"
     inkscape:window-maximized="0"
     inkscape:current-layer="svg13" />
  <title
     id="title1">Group</title>
  <defs
     id="defs6">
    <path
       id="path-1"
       d="m2.9986 6.8227c-1.1836 4.7857 1.1978 5.8721 2.4572 6.586 0.26051 0.16324 0.50669 0.27518 0.71552 0.33141 0 0 5.8986-10.994-5.8492-13.564l-0.32215 0.060775s4.3731 1.0691 3.0566 6.3921z" />
    <linearGradient
       id="linearGradient-3"
       x1="4.8916"
       x2="7.2502"
       y1="6.1913"
       y2="4.3912"
       gradientTransform="scale(.74739 1.338)"
       gradientUnits="userSpaceOnUse">
      <stop
         stop-opacity="0"
         offset="0"
         id="stop1" />
      <stop
         offset="1"
         id="stop2" />
    </linearGradient>
    <path
       id="path-4"
       d="m11.25 2.3186c-0.92403 0.80085-1.8053 3.3721-1.9736 4.1672-7.4605 2.6383-9.2763 6.8355-9.2763 6.8355s4.1785-2.6781 11.25-1.7988c6.7501 0.83945 6.7501 7.675 6.7501 7.675 0.01966 0.26275 0.02925 0.52118 0.02949 0.77529 0.0058 7.3979-7.9637 11.097-7.9637 11.097 13.974 0.71953 18.395-7.5549 18.74-8.4245-0.34543 4.1873-2.3388 6.8055-2.3388 6.8055 5.736-4.2113 7.2165-8.5305 7.2182-11.865 0.0018-3.5497-1.6721-5.9833-1.6721-5.9833 2.842 1.1192 3.9868 3.7575 3.9868 3.7575s-1.6579-9.7136-10.184-13.791c-0.0161-0.00767-0.03174-0.01511-0.04796-0.022785-0.02013-0.00959-0.04026-0.019067-0.06039-0.028541-2.2731-1.0673-4.4294-1.4578-6.3679-1.4578-0.36284 0-0.71787 0.013671-1.0648 0.039214-2.4795 0.18224-6.1008 1.4185-7.0249 2.2194zm1.0955 3.7475c0-0.34765 0.27841-0.62959 0.62171-0.62959 0.3433 0 0.62171 0.28193 0.62171 0.62959 0 0.34777-0.27841 0.62959-0.62171 0.62959-0.3433 0-0.62171-0.28181-0.62171-0.62959" />
    <linearGradient
       id="linearGradient-6"
       x1="17.403"
       x2="16.718"
       y1="13.095"
       y2="28.54"
       gradientTransform="scale(1.0767 .92877)"
       gradientUnits="userSpaceOnUse">
      <stop
         stop-color="#fff"
         offset="0"
         id="stop3" />
      <stop
         stop-color="#A5A5A5"
         offset="1"
         id="stop4" />
    </linearGradient>
    <path
       id="path-7"
       d="m9.2763 6.4858c-7.4605 2.6383-9.2763 6.8355-9.2763 6.8355s4.1785-2.6781 11.25-1.7988c6.7501 0.83945 6.7501 7.675 6.7501 7.675 0.5921 7.9148-7.9342 11.872-7.9342 11.872 13.974 0.71953 18.395-7.5549 18.74-8.4245-0.34543 4.1873-2.3388 6.8055-2.3388 6.8055 11.842-8.6943 5.5461-17.848 5.5461-17.848 2.842 1.1192 3.9868 3.7575 3.9868 3.7575s-1.6579-9.7136-10.184-13.791c-2.3132-1.1062-4.5069-1.5091-6.4762-1.5091-5.2895 0-9.708 4.747-10.063 6.4259z" />
    <path
       id="path-9"
       d="m0.184 19.762c-0.11883 0.060484-0.184 0.090607-0.184 0.090607 12.219 0.62684 17.138-5.5948 18.414-7.7511 0.07417-0.20357 0.13684-0.40916 0.18743-0.61632 0.67142-2.7493-0.23696-6.4548-1.6587-8.3674-0.03945 3.0681-0.11848 3.2274-0.11848 3.2274 0-2.0321-2.6065-5.14-5.213-6.3353 3.9156 14.266-9.2432 19.062-11.427 19.752" />
    <path
       id="path-11"
       d="m10.84 1.7756c-0.60327-0.35113-3.877-2.6482-10.761-0.72224l17.486 5.9384s-1.6616-4.3334-7.9913-6.9816c0.67258 0.62197 1.0483 1.1134 1.2659 1.7655" />
    <linearGradient
       id="linearGradient-13"
       x1="7.7556"
       x2="8.6024"
       y1="5.5405"
       y2="3.9848"
       gradientTransform="scale(1.5826 .63187)"
       gradientUnits="userSpaceOnUse">
      <stop
         stop-opacity="0"
         offset="0"
         id="stop5" />
      <stop
         offset="1"
         id="stop6" />
    </linearGradient>
  </defs>
  <g
     fill="none"
     fill-rule="evenodd"
     id="g13">
    <g
       transform="translate(-254,-311)"
       id="g12">
      <g
         id="shapes"
         transform="translate(254,311)">
        <path
           d="m12.174 11.274s3.9592 1.0224 2.6238 6.3914c-1.2007 4.827 1.2665 5.9653 2.6682 6.8383 0.26429 0.16452 0.51403 0.27755 0.72576 0.33427 0 0 5.9002-10.972-6.0178-13.564"
           fill="#fff"
           id="path6" />
        <g
           transform="translate(11.826 10.922)"
           id="g7">
          <mask
             id="mask-2"
             fill="#ffffff">
            <use
               xlink:href="#path-1"
               id="use6" />
          </mask>
          <path
             d="m2.9088 7.0462c-1.2007 4.7644 1.858 6.0841 2.557 6.364 0.26429 0.16252 0.51403 0.27395 0.72589 0.32993 0 0 5.9002-10.829-6.0178-13.388 0 0 4.1347 1.2018 2.7991 6.5012z"
             fill="url(#linearGradient-3)"
             mask="url(#mask-2)"
             id="path7" />
        </g>
        <mask
           id="mask-5"
           fill="#ffffff">
          <use
             xlink:href="#path-4"
             id="use7" />
        </mask>
        <path
           d="m11.25 2.2802c-1.3157-0.32077-1.9736-0.48116-1.9736-0.48116s0.35526 3.0079 0 4.6868c-7.4605 2.6383-9.2763 6.8355-9.2763 6.8355s4.1785-2.6781 11.25-1.7988c6.7501 0.83945 6.7501 7.675 6.7501 7.675 0.01966 0.26275 0.02925 0.52118 0.02949 0.77529 0.0058 7.3979-7.9637 11.097-7.9637 11.097 13.974 0.71953 18.395-7.5549 18.74-8.4245-0.34543 4.1873-2.3388 6.8055-2.3388 6.8055 5.736-4.2113 7.2165-8.5305 7.2182-11.865 0.0018-3.5497-1.6721-5.9833-1.6721-5.9833 2.842 1.1192 3.9868 3.7575 3.9868 3.7575s-1.6579-9.7136-10.184-13.791c-0.0161-0.00767-0.03174-0.01511-0.04796-0.022785-0.02013-0.00959-0.04026-0.019067-0.06039-0.028541-2.2731-1.0673-4.4294-1.4578-6.3679-1.4578-0.36284 0-0.71787 0.013671-1.0648 0.039214-4.7104 0.34621-7.0249 2.181-7.0249 2.181zm1.0955 3.7859c0-0.34765 0.27841-0.62959 0.62171-0.62959 0.3433 0 0.62171 0.28193 0.62171 0.62959 0 0.34777-0.27841 0.62959-0.62171 0.62959-0.3433 0-0.62171-0.28181-0.62171-0.62959"
           fill="url(#linearGradient-6)"
           mask="url(#mask-5)"
           id="path8" />
        <mask
           id="mask-8"
           fill="#ffffff">
          <use
             xlink:href="#path-7"
             id="use8" />
        </mask>
        <path
           d="m9.9474 31.07s15.987-4.3172 11.724-19.907c2.6053 1.1992 5.2105 4.3172 5.2105 6.3558 0 0 0.07899-0.15986 0.11842-3.2379 1.4211 1.9187 2.329 5.6363 1.6579 8.3945-1.2649 5.1982-10.066 9.3538-18.711 8.3945"
           fill="#e3e3e3"
           mask="url(#mask-8)"
           id="path9" />
        <g
           transform="translate(10.087 11.274)"
           id="g10">
          <mask
             id="mask-10"
             fill="#ffffff">
            <use
               xlink:href="#path-9"
               id="use9" />
          </mask>
          <path
             d="m0.184 19.762c-0.11883 0.060484-0.184 0.090607-0.184 0.090607 12.219 0.62684 17.138-5.5948 18.414-7.7511 0.07417-0.20357 0.13684-0.40916 0.18743-0.61632 0.67142-2.7493-0.23696-6.4548-1.6587-8.3674-0.03945 3.0681-0.11848 3.2274-0.11848 3.2274 0-2.0321-2.6065-5.14-5.213-6.3353 3.9156 14.266-9.2432 19.062-11.427 19.752"
             fill="#e3e3e3"
             mask="url(#mask-10)"
             id="path10" />
        </g>
        <g
           transform="translate(14.609 4.58)"
           id="g11">
          <mask
             id="mask-12"
             fill="#ffffff">
            <use
               xlink:href="#path-11"
               id="use10" />
          </mask>
          <path
             d="m10.84 1.7756c-0.60327-0.35113-3.877-2.6482-10.761-0.72224l17.486 5.9384s-1.6616-4.3334-7.9913-6.9816c0.67258 0.62197 1.0483 1.1134 1.2659 1.7655"
             fill="url(#linearGradient-13)"
             mask="url(#mask-12)"
             id="path11" />
        </g>
      </g>
    </g>
  </g>
  <path
     d="m 6.3819772,26.522367 a 5.7909066,5.7909066 0 1 0 0,-11.581813 5.7909066,5.7909066 0 0 0 0,11.581813 z"
     fill="#f9c513"
     id="path13"
     style="stroke-width:1.44772" />
  <metadata
     id="metadata13">
    <rdf:RDF>
      <cc:Work
         rdf:about="">
        <dc:title>Group</dc:title>
      </cc:Work>
    </rdf:RDF>
  </metadata>
</svg>
