<?xml version="1.0" encoding="UTF-8" standalone="no"?>
<svg
   width="36"
   height="32"
   viewBox="0 0 36 32"
   version="1.1"
   id="svg10"
   sodipodi:docname="crow-white.svg"
   xmlns:inkscape="http://www.inkscape.org/namespaces/inkscape"
   xmlns:sodipodi="http://sodipodi.sourceforge.net/DTD/sodipodi-0.dtd"
   xmlns:xlink="http://www.w3.org/1999/xlink"
   xmlns="http://www.w3.org/2000/svg"
   xmlns:svg="http://www.w3.org/2000/svg">
  <sodipodi:namedview
     id="namedview10"
     pagecolor="#ffffff"
     bordercolor="#000000"
     borderopacity="0.25"
     inkscape:showpageshadow="2"
     inkscape:pageopacity="0.0"
     inkscape:pagecheckerboard="0"
     inkscape:deskcolor="#d1d1d1">
    <inkscape:page
       x="0"
       y="0"
       width="36"
       height="32"
       id="page2"
       margin="0"
       bleed="0" />
  </sodipodi:namedview>
  <title
     id="title1">Group</title>
  <defs
     id="defs6">
    <path
       d="m 2.998626,6.8226943 c -1.1835502,4.7856757 1.1978249,5.8720537 2.4571697,6.5860107 0.2605125,0.163245 0.506691,0.275176 0.7155219,0.331408 0,0 5.8986204,-10.9939169 -5.84916745,-13.56395771 L 0,0.23693029 c 0,0 4.3731329,1.06906681 3.0566305,6.39206751 z"
       id="path-1" />
    <linearGradient
       x1="4.8916278"
       y1="6.1912584"
       x2="7.2502437"
       y2="4.3911829"
       id="linearGradient-3"
       gradientTransform="scale(0.7473872,1.3379946)"
       gradientUnits="userSpaceOnUse">
      <stop
         stop-color="#000000"
         stop-opacity="0"
         offset="0%"
         id="stop1" />
      <stop
         stop-color="#000000"
         offset="100%"
         id="stop2" />
    </linearGradient>
    <path
       d="M 11.249882,2.3185753 C 10.32585,3.119429 9.4445368,5.6906511 9.2762763,6.485813 1.81575,9.1240773 0,13.321316 0,13.321316 c 0,0 4.1784868,-2.678078 11.249882,-1.798817 C 18,12.361947 18,19.19745 18,19.19745 c 0.01966,0.262747 0.02925,0.521177 0.02949,0.77529 0.0058,7.397933 -7.963698,11.096899 -7.963698,11.096899 13.973685,0.719527 18.394816,-7.554909 18.740132,-8.424457 -0.345434,4.187285 -2.338816,6.805522 -2.338816,6.805522 5.735961,-4.211269 7.216461,-8.530467 7.218237,-11.864874 0.0018,-3.549664 -1.672105,-5.983343 -1.672105,-5.983343 C 34.855224,12.721711 36,15.359975 36,15.359975 c 0,0 -1.657895,-9.7136097 -10.184211,-13.7909273 -0.0161,-0.00767 -0.03174,-0.01511 -0.04796,-0.022785 -0.02013,-0.00959 -0.04026,-0.019067 -0.06039,-0.028541 -2.273092,-1.06729783 -4.429421,-1.45776095 -6.367855,-1.45776095 -0.362842,0 -0.717869,0.01367101 -1.064842,0.0392142 -2.479469,0.18223849 -6.100824,1.41854675 -7.024855,2.21940055 z m 1.095513,3.7475138 c 0,-0.3476512 0.278408,-0.6295858 0.62171,-0.6295858 v 0 c 0.343303,0 0.621711,0.2819346 0.621711,0.6295858 v 0 c 0,0.3477713 -0.278408,0.6295858 -0.621711,0.6295858 v 0 c -0.343302,0 -0.62171,-0.2818145 -0.62171,-0.6295858"
       id="path-4" />
    <linearGradient
       x1="17.403349"
       y1="13.094736"
       x2="16.717825"
       y2="28.540245"
       id="linearGradient-6"
       gradientTransform="scale(1.0766951,0.92876803)"
       gradientUnits="userSpaceOnUse">
      <stop
         stop-color="#FFFFFF"
         offset="0%"
         id="stop3" />
      <stop
         stop-color="#A5A5A5"
         offset="100%"
         id="stop4" />
    </linearGradient>
    <path
       d="M 9.2762763,6.485813 C 1.81575,9.1240773 0,13.321316 0,13.321316 c 0,0 4.1784868,-2.678078 11.249882,-1.798817 C 18,12.361947 18,19.19745 18,19.19745 c 0.592105,7.914793 -7.934211,11.872189 -7.934211,11.872189 13.973685,0.719527 18.394816,-7.554909 18.740132,-8.424457 -0.345434,4.187285 -2.338816,6.805522 -2.338816,6.805522 C 38.30921,20.756425 32.013237,11.602487 32.013237,11.602487 34.855224,12.721711 36,15.359975 36,15.359975 c 0,0 -1.657895,-9.7136097 -10.184211,-13.7909273 -2.313236,-1.10615224 -4.506868,-1.50908717 -6.47621,-1.50908717 -5.289513,0 -9.7080395,4.74695697 -10.0633027,6.42585247 z"
       id="path-7" />
    <path
       d="M 0.18399674,19.76207 C 0.06516304,19.822554 0,19.852677 0,19.852677 v 0 c 12.219255,0.626836 17.137643,-5.594787 18.413654,-7.75106 v 0 c 0.07417,-0.203566 0.136843,-0.409165 0.187433,-0.616317 v 0 C 19.272503,8.7360192 18.36413,5.0304668 16.942391,3.1179236 v 0 c -0.03945,3.0680778 -0.118478,3.2274166 -0.118478,3.2274166 v 0 c 0,-2.0320772 -2.606522,-5.1399599 -5.213043,-6.33529935 v 0 C 15.526458,14.275701 2.3676696,19.071642 0.18399674,19.76207"
       id="path-9" />
    <path
       d="M 10.839757,1.7756189 C 10.236487,1.4244915 6.9627097,-0.87258232 0.07904348,1.0533822 v 0 L 17.565217,6.9917328 c 0,0 -1.661574,-4.3334202 -7.9913427,-6.98162149 v 0 C 10.246456,0.63207749 10.622209,1.1235596 10.839757,1.7756189"
       id="path-11" />
    <linearGradient
       x1="7.7555852"
       y1="5.540535"
       x2="8.6023893"
       y2="3.9847984"
       id="linearGradient-13"
       gradientTransform="scale(1.582593,0.6318744)"
       gradientUnits="userSpaceOnUse">
      <stop
         stop-color="#000000"
         stop-opacity="0"
         offset="0%"
         id="stop5" />
      <stop
         stop-color="#000000"
         offset="100%"
         id="stop6" />
    </linearGradient>
  </defs>
  <g
     id="Page-1"
     stroke="none"
     stroke-width="1"
     fill="none"
     fill-rule="evenodd">
    <g
       id="logo-2-copy-5"
       transform="translate(-254,-311)">
      <g
         id="shapes"
         transform="translate(254,311)">
        <path
           d="m 12.173913,11.273939 c 0,0 3.959246,1.022392 2.623799,6.391391 -1.200701,4.827032 1.266474,5.965272 2.668226,6.838295 0.264287,0.164521 0.514033,0.277554 0.725757,0.334272 0,0 5.900247,-10.971708 -6.017782,-13.563958"
           id="Fill-1"
           fill="#ffffff" />
        <g
           id="Group-5"
           transform="translate(11.8261,10.9216)">
          <mask
             id="mask-2"
             fill="#ffffff">
            <use
               xlink:href="#path-1"
               id="use6" />
          </mask>
          <g
             id="Clip-4" />
          <path
             d="m 2.9087885,7.0462118 c -1.2007014,4.7643892 1.8580265,6.0840602 2.5570159,6.3639672 0.2642877,0.162519 0.5140336,0.273952 0.7258907,0.329934 0,0 5.9002469,-10.8291929 -6.01778206,-13.38780241 0,0 4.13469436,1.20182681 2.79911416,6.50115151 z"
             id="Fill-3"
             fill="url(#linearGradient-3)"
             mask="url(#mask-2)"
             style="fill:url(#linearGradient-3)" />
        </g>
        <g
           id="Group-8">
          <mask
             id="mask-5"
             fill="#ffffff">
            <use
               xlink:href="#path-4"
               id="use7" />
          </mask>
          <g
             id="Clip-7" />
          <path
             d="M 11.249882,2.2802133 C 9.9341447,1.9594409 9.2762763,1.7990548 9.2762763,1.7990548 c 0,0 0.3552632,3.0078627 0,4.6867582 C 1.81575,9.1240773 0,13.321316 0,13.321316 c 0,0 4.1784868,-2.678078 11.249882,-1.798817 C 18,12.361947 18,19.19745 18,19.19745 c 0.01966,0.262747 0.02925,0.521177 0.02949,0.77529 0.0058,7.397933 -7.963698,11.096899 -7.963698,11.096899 13.973685,0.719527 18.394816,-7.554909 18.740132,-8.424457 -0.345434,4.187285 -2.338816,6.805522 -2.338816,6.805522 5.735961,-4.211269 7.216461,-8.530467 7.218237,-11.864874 0.0018,-3.549664 -1.672105,-5.983343 -1.672105,-5.983343 C 34.855224,12.721711 36,15.359975 36,15.359975 c 0,0 -1.657895,-9.7136097 -10.184211,-13.7909273 -0.0161,-0.00767 -0.03174,-0.01511 -0.04796,-0.022785 -0.02013,-0.00959 -0.04026,-0.019067 -0.06039,-0.028541 -2.273092,-1.06729783 -4.429421,-1.45776095 -6.367855,-1.45776095 -0.362842,0 -0.717869,0.01367101 -1.064842,0.0392142 -4.710434,0.34621223 -7.024855,2.18103855 -7.024855,2.18103855 z m 1.095513,3.7858758 c 0,-0.3476512 0.278408,-0.6295858 0.62171,-0.6295858 v 0 c 0.343303,0 0.621711,0.2819346 0.621711,0.6295858 v 0 c 0,0.3477713 -0.278408,0.6295858 -0.621711,0.6295858 v 0 c -0.343302,0 -0.62171,-0.2818145 -0.62171,-0.6295858"
             id="Fill-6"
             fill="url(#linearGradient-6)"
             mask="url(#mask-5)"
             style="fill:url(#linearGradient-6)" />
        </g>
        <g
           id="Group-11">
          <mask
             id="mask-8"
             fill="#ffffff">
            <use
               xlink:href="#path-7"
               id="use8" />
          </mask>
          <g
             id="Clip-10" />
          <path
             d="m 9.9473684,31.069639 c 0,0 15.9868416,-4.317159 11.7236846,-19.906903 2.605263,1.199211 5.210526,4.31716 5.210526,6.355819 0,0 0.07899,-0.159855 0.118421,-3.23787 1.421053,1.918737 2.328987,5.636292 1.657895,8.394477 -1.264856,5.19822 -10.06579,9.353846 -18.7105266,8.394477"
             id="Fill-9"
             fill="#e3e3e3"
             mask="url(#mask-8)" />
        </g>
        <g
           id="Group-14"
           transform="translate(10.087,11.2739)">
          <mask
             id="mask-10"
             fill="#ffffff">
            <use
               xlink:href="#path-9"
               id="use9" />
          </mask>
          <g
             id="Clip-13" />
          <path
             d="M 0.18399674,19.76207 C 0.06516304,19.822554 0,19.852677 0,19.852677 v 0 c 12.219255,0.626836 17.137643,-5.594787 18.413654,-7.75106 v 0 c 0.07417,-0.203566 0.136843,-0.409165 0.187433,-0.616317 v 0 C 19.272503,8.7360192 18.36413,5.0304668 16.942391,3.1179236 v 0 c -0.03945,3.0680778 -0.118478,3.2274166 -0.118478,3.2274166 v 0 c 0,-2.0320772 -2.606522,-5.1399599 -5.213043,-6.33529935 v 0 C 15.526458,14.275701 2.3676696,19.071642 0.18399674,19.76207"
             id="Fill-12"
             fill="#e3e3e3"
             mask="url(#mask-10)" />
        </g>
        <g
           id="Group-17"
           transform="translate(14.6087,4.58)">
          <mask
             id="mask-12"
             fill="#ffffff">
            <use
               xlink:href="#path-11"
               id="use10" />
          </mask>
          <g
             id="Clip-16" />
          <path
             d="M 10.839757,1.7756189 C 10.236487,1.4244915 6.9627097,-0.87258232 0.07904348,1.0533822 v 0 L 17.565217,6.9917328 c 0,0 -1.661574,-4.3334202 -7.9913427,-6.98162149 v 0 C 10.246456,0.63207749 10.622209,1.1235596 10.839757,1.7756189"
             id="Fill-15"
             fill="url(#linearGradient-13)"
             mask="url(#mask-12)"
             style="fill:url(#linearGradient-13)" />
        </g>
      </g>
    </g>
  </g>
</svg>
