<?xml version="1.0" encoding="UTF-8" standalone="no"?>
<svg
   width="207"
   height="176.61"
   version="1.1"
   viewBox="0 0 207 176.61"
   id="svg13"
   sodipodi:docname="favicon-light-error.svg"
   inkscape:version="1.4 (e7c3feb1, 2024-10-09)"
   xmlns:inkscape="http://www.inkscape.org/namespaces/inkscape"
   xmlns:sodipodi="http://sodipodi.sourceforge.net/DTD/sodipodi-0.dtd"
   xmlns:xlink="http://www.w3.org/1999/xlink"
   xmlns="http://www.w3.org/2000/svg"
   xmlns:svg="http://www.w3.org/2000/svg"
   xmlns:rdf="http://www.w3.org/1999/02/22-rdf-syntax-ns#"
   xmlns:cc="http://creativecommons.org/ns#"
   xmlns:dc="http://purl.org/dc/elements/1.1/">
  <sodipodi:namedview
     id="namedview13"
     pagecolor="#ffffff"
     bordercolor="#000000"
     borderopacity="0.25"
     inkscape:showpageshadow="2"
     inkscape:pageopacity="0.0"
     inkscape:pagecheckerboard="0"
     inkscape:deskcolor="#d1d1d1"
     inkscape:zoom="2.4"
     inkscape:cx="103.75"
     inkscape:cy="88.958333"
     inkscape:window-width="1472"
     inkscape:window-height="862"
     inkscape:window-x="0"
     inkscape:window-y="38"
     inkscape:window-maximized="0"
     inkscape:current-layer="svg13" />
  <title
     id="title1">logo</title>
  <defs
     id="defs6">
    <path
       id="path-1"
       d="m17.242 38.731c-6.8054 27.167 6.8875 33.335 14.129 37.388 1.4979 0.92671 2.9135 1.5621 4.1143 1.8813 0 0 33.917-62.41-33.633-77l-1.8524 0.34501s25.146 6.0689 17.576 36.287z" />
    <linearGradient
       id="linearGradient-3"
       x1="27.896"
       x2="41.721"
       y1="35.372"
       y2="25.088"
       gradientTransform="scale(.75219 1.3295)"
       gradientUnits="userSpaceOnUse">
      <stop
         stop-opacity="0"
         offset="0"
         id="stop1" />
      <stop
         offset="1"
         id="stop2" />
    </linearGradient>
    <path
       id="path-4"
       d="m64.687 13.162c-5.3132 4.5463-10.381 19.143-11.348 23.657-42.898 14.977-53.339 38.804-53.339 38.804s24.026-15.203 64.687-10.212c38.813 4.7654 38.813 43.569 38.813 43.569 0.11303 1.4916 0.16819 2.9586 0.16955 4.4012 0.0334 41.997-45.791 62.995-45.791 62.995 80.349 4.0846 105.77-42.888 107.76-47.824-1.9862 23.77-13.448 38.634-13.448 38.634 32.982-23.907 41.495-48.426 41.505-67.355 0.0102-20.151-9.6146-33.966-9.6146-33.966 16.341 6.3536 22.924 21.331 22.924 21.331s-9.5329-55.142-58.559-78.288c-0.0926-0.043569-0.18249-0.085777-0.27577-0.12935-0.11576-0.054462-0.23152-0.10824-0.34727-0.16202-13.07-6.0588-25.469-8.2754-36.615-8.2754-2.0863 0-4.1277 0.077608-6.1228 0.22261-14.257 1.0345-35.08 8.0528-40.393 12.599zm6.2992 21.274c0-1.9736 1.6008-3.574 3.5748-3.574s3.5748 1.6005 3.5748 3.574c0 1.9742-1.6008 3.574-3.5748 3.574s-3.5748-1.5998-3.5748-3.574" />
    <linearGradient
       id="linearGradient-6"
       x1="99.43"
       x2="95.514"
       y1="75.347"
       y2="161.36"
       gradientTransform="scale(1.0836 .92284)"
       gradientUnits="userSpaceOnUse">
      <stop
         stop-color="#3A3A3A"
         offset="0"
         id="stop3" />
      <stop
         offset="1"
         id="stop4" />
    </linearGradient>
    <path
       id="path-7"
       d="m53.339 36.819c-42.898 14.977-53.339 38.804-53.339 38.804s24.026-15.203 64.687-10.212c38.813 4.7654 38.813 43.569 38.813 43.569 3.4046 44.931-45.622 67.396-45.622 67.396 80.349 4.0846 105.77-42.888 107.76-47.824-1.9862 23.77-13.448 38.634-13.448 38.634 68.092-49.356 31.89-101.32 31.89-101.32 16.341 6.3536 22.924 21.331 22.924 21.331s-9.5329-55.142-58.559-78.288c-13.301-6.2794-25.914-8.5668-37.238-8.5668-30.415 0-55.821 26.948-57.864 36.478z" />
    <path
       id="path-9"
       d="m1.058 112.19c-0.68329 0.34336-1.058 0.51436-1.058 0.51436 70.261 3.5584 98.541-31.761 105.88-44.001 0.42647-1.1556 0.78685-2.3228 1.0777-3.4987 3.8606-15.607-1.3625-36.643-9.5375-47.5-0.22686 17.417-0.68125 18.321-0.68125 18.321 0-11.536-14.988-29.179-29.975-35.964 22.515 80.983-53.148 108.21-65.705 112.13" />
    <path
       id="path-11"
       d="m62.329 10.08c-3.4688-1.9933-22.293-15.033-61.874-4.1l100.55 33.711s-9.5541-24.6-45.95-39.633c3.8673 3.5308 6.0279 6.3208 7.2788 10.022" />
    <linearGradient
       id="linearGradient-13"
       x1="44.31"
       x2="49.148"
       y1="31.655"
       y2="22.991"
       gradientTransform="scale(1.5928 .62784)"
       gradientUnits="userSpaceOnUse">
      <stop
         stop-opacity="0"
         offset="0"
         id="stop5" />
      <stop
         offset="1"
         id="stop6" />
    </linearGradient>
  </defs>
  <g
     transform="translate(0 -.34038)"
     fill="none"
     fill-rule="evenodd"
     id="g13">
    <g
       transform="translate(-134,-26)"
       id="g12">
      <g
         id="shapes"
         transform="translate(134,26)">
        <path
           d="m70 64s22.766 5.8039 15.087 36.283c-6.904 27.402 7.2822 33.864 15.342 38.82 1.5197 0.93396 2.9557 1.5756 4.1731 1.8976 0 0 33.926-62.284-34.602-77"
           fill="#272727"
           id="path6" />
        <g
           transform="translate(68,62)"
           id="g7">
          <mask
             id="mask-2"
             fill="#ffffff">
            <use
               xlink:href="#path-1"
               id="use6" />
          </mask>
          <path
             d="m16.726 40c-6.904 27.047 10.684 34.538 14.703 36.127 1.5197 0.92259 2.9557 1.5552 4.1739 1.873 0 0 33.926-61.475-34.602-76 0 0 23.774 6.8225 16.095 36.906z"
             fill="url(#linearGradient-3)"
             mask="url(#mask-2)"
             id="path7" />
        </g>
        <mask
           id="mask-5"
           fill="#ffffff">
          <use
             xlink:href="#path-4"
             id="use7" />
        </mask>
        <path
           d="m64.687 12.944c-7.5655-1.821-11.348-2.7314-11.348-2.7314s2.0428 17.075 0 26.606c-42.898 14.977-53.339 38.804-53.339 38.804s24.026-15.203 64.687-10.212c38.813 4.7654 38.813 43.569 38.813 43.569 0.11303 1.4916 0.16819 2.9586 0.16955 4.4012 0.0334 41.997-45.791 62.995-45.791 62.995 80.349 4.0846 105.77-42.888 107.76-47.824-1.9862 23.77-13.448 38.634-13.448 38.634 32.982-23.907 41.495-48.426 41.505-67.355 0.0102-20.151-9.6146-33.966-9.6146-33.966 16.341 6.3536 22.924 21.331 22.924 21.331s-9.5329-55.142-58.559-78.288c-0.0926-0.043569-0.18249-0.085777-0.27577-0.12935-0.11576-0.054462-0.23152-0.10824-0.34727-0.16202-13.07-6.0588-25.469-8.2754-36.615-8.2754-2.0863 0-4.1277 0.077608-6.1228 0.22261-27.085 1.9654-40.393 12.381-40.393 12.381zm6.2992 21.492c0-1.9736 1.6008-3.574 3.5748-3.574s3.5748 1.6005 3.5748 3.574c0 1.9742-1.6008 3.574-3.5748 3.574s-3.5748-1.5998-3.5748-3.574"
           fill="url(#linearGradient-6)"
           mask="url(#mask-5)"
           id="path8" />
        <mask
           id="mask-8"
           fill="#ffffff">
          <use
             xlink:href="#path-7"
             id="use8" />
        </mask>
        <path
           d="m57.197 176.38s91.924-24.508 67.411-113.01c14.98 6.8077 29.961 24.508 29.961 36.081 0 0 0.45417-0.90746 0.68092-18.381 8.171 10.892 13.392 31.996 9.5329 47.654-7.2729 29.509-57.878 53.1-107.59 47.654"
           fill="#000"
           mask="url(#mask-8)"
           id="path9" />
        <g
           transform="translate(58,64)"
           id="g10">
          <mask
             id="mask-10"
             fill="#ffffff">
            <use
               xlink:href="#path-9"
               id="use9" />
          </mask>
          <path
             d="m1.058 112.19c-0.68329 0.34336-1.058 0.51436-1.058 0.51436 70.261 3.5584 98.541-31.761 105.88-44.001 0.42647-1.1556 0.78685-2.3228 1.0777-3.4987 3.8606-15.607-1.3625-36.643-9.5375-47.5-0.22686 17.417-0.68125 18.321-0.68125 18.321 0-11.536-14.988-29.179-29.975-35.964 22.515 80.983-53.148 108.21-65.705 112.13"
             fill="#0f0f0f"
             mask="url(#mask-10)"
             id="path10" />
        </g>
        <g
           transform="translate(84,26)"
           id="g11">
          <mask
             id="mask-12"
             fill="#ffffff">
            <use
               xlink:href="#path-11"
               id="use10" />
          </mask>
          <path
             d="m62.329 10.08c-3.4688-1.9933-22.293-15.033-61.874-4.1l100.55 33.711s-9.5541-24.6-45.95-39.633c3.8673 3.5308 6.0279 6.3208 7.2788 10.022"
             fill="url(#linearGradient-13)"
             mask="url(#mask-12)"
             id="path11" />
        </g>
      </g>
    </g>
  </g>
  <path
     d="m 36.143776,120.05895 -31.7444413,31.62494 9.3619983,9.32686 31.744443,-31.62494 31.74444,31.62494 9.361998,-9.32686 L 54.867773,120.05895 86.612214,88.434036 77.250216,79.107171 45.505776,110.73209 13.761333,79.107171 4.3993347,88.434036 Z"
     clip-rule="evenodd"
     fill="#ea4a5a"
     fill-rule="evenodd"
     stroke-width="10.2573"
     id="path13" />
  <metadata
     id="metadata13">
    <rdf:RDF>
      <cc:Work
         rdf:about="">
        <dc:title>logo</dc:title>
      </cc:Work>
    </rdf:RDF>
  </metadata>
</svg>
