<?xml version="1.0" encoding="UTF-8" standalone="no"?>
<svg
   width="267"
   height="236.61006"
   viewBox="0 0 267 236.61006"
   version="1.1"
   id="svg10"
   sodipodi:docname="crow-black-round.svg"
   xmlns:inkscape="http://www.inkscape.org/namespaces/inkscape"
   xmlns:sodipodi="http://sodipodi.sourceforge.net/DTD/sodipodi-0.dtd"
   xmlns:xlink="http://www.w3.org/1999/xlink"
   xmlns="http://www.w3.org/2000/svg"
   xmlns:svg="http://www.w3.org/2000/svg">
  <sodipodi:namedview
     id="namedview10"
     pagecolor="#ffffff"
     bordercolor="#000000"
     borderopacity="0.25"
     inkscape:showpageshadow="2"
     inkscape:pageopacity="0.0"
     inkscape:pagecheckerboard="0"
     inkscape:deskcolor="#d1d1d1">
    <inkscape:page
       x="0"
       y="0"
       width="267"
       height="236.61006"
       id="page1"
       margin="0"
       bleed="0" />
  </sodipodi:namedview>
  <title
     id="title1">logo</title>
  <defs
     id="defs6">
    <path
       d="m 17.2421,38.731134 c -6.805414,27.167367 6.887493,33.334527 14.128725,37.387526 1.497947,0.926709 2.913473,1.562123 4.114251,1.88134 0,0 33.917069,-62.410369 -33.6327126,-77 L 0,1.3450081 c 0,0 25.145514,6.0688881 17.575625,36.2865469 z"
       id="path-1" />
    <linearGradient
       x1="27.896271"
       y1="35.372437"
       x2="41.721436"
       y2="25.088091"
       id="linearGradient-3"
       gradientTransform="scale(0.75218978,1.3294517)"
       gradientUnits="userSpaceOnUse">
      <stop
         stop-color="#000000"
         stop-opacity="0"
         offset="0%"
         id="stop1" />
      <stop
         stop-color="#000000"
         offset="100%"
         id="stop2" />
    </linearGradient>
    <path
       d="M 64.686819,13.162109 C 59.373638,17.708403 54.306086,32.304741 53.338589,36.818723 10.440563,51.795646 0,75.622569 0,75.622569 c 0,0 24.026299,-15.202938 64.686819,-10.211538 C 103.5,70.176415 103.5,108.98026 103.5,108.98026 c 0.11303,1.49157 0.16819,2.95863 0.16955,4.40117 0.0334,41.99666 -45.791261,62.99498 -45.791261,62.99498 80.348681,4.08462 105.770191,-42.88778 107.755761,-47.82403 -1.98625,23.77042 -13.4482,38.63365 -13.4482,38.63365 32.98178,-23.90657 41.49465,-48.42584 41.50487,-67.354626 0.0102,-20.150769 -9.61461,-33.9663 -9.61461,-33.9663 C 200.41754,72.218723 207,87.195646 207,87.195646 c 0,0 -9.5329,-55.142307 -58.55921,-78.2884614 -0.0926,-0.043569 -0.18249,-0.085777 -0.27577,-0.1293461 -0.11576,-0.054462 -0.23152,-0.1082423 -0.34727,-0.1620231 -13.07028,-6.0588462 -25.46917,-8.27543078 -36.61517,-8.27543078 -2.08634,0 -4.12774,0.0776077 -6.12284,0.22261153 C 90.822791,1.5975293 70,8.6158154 64.686819,13.162109 Z m 6.299201,21.273922 c 0,-1.97355 1.600845,-3.574039 3.574835,-3.574039 v 0 c 1.97399,0 3.574836,1.600489 3.574836,3.574039 v 0 c 0,1.97423 -1.600846,3.574038 -3.574836,3.574038 v 0 c -1.97399,0 -3.574835,-1.599808 -3.574835,-3.574038"
       id="path-4" />
    <linearGradient
       x1="99.430336"
       y1="75.346931"
       x2="95.513733"
       y2="161.35934"
       id="linearGradient-6"
       gradientTransform="scale(1.0836138,0.92283803)"
       gradientUnits="userSpaceOnUse">
      <stop
         stop-color="#3A3A3A"
         offset="0%"
         id="stop3" />
      <stop
         stop-color="#000000"
         offset="100%"
         id="stop4" />
    </linearGradient>
    <path
       d="M 53.338589,36.818723 C 10.440563,51.795646 0,75.622569 0,75.622569 c 0,0 24.026299,-15.202938 64.686819,-10.211538 C 103.5,70.176415 103.5,108.98026 103.5,108.98026 c 3.40461,44.93077 -45.621711,67.39615 -45.621711,67.39615 80.348681,4.08462 105.770191,-42.88778 107.755761,-47.82403 -1.98625,23.77042 -13.4482,38.63365 -13.4482,38.63365 C 220.27796,117.83026 184.07611,65.865104 184.07611,65.865104 200.41754,72.218723 207,87.195646 207,87.195646 c 0,0 -9.5329,-55.142307 -58.55921,-78.2884614 -13.30111,-6.2794154 -25.91449,-8.56680014 -37.23821,-8.56680014 -30.414702,0 -55.821228,26.94756954 -57.863991,36.47833854 z"
       id="path-7" />
    <path
       d="M 1.0579813,112.1855 C 0.3746875,112.52886 0,112.69986 0,112.69986 v 0 c 70.260719,3.55843 98.54145,-31.760539 105.87851,-44.001289 v 0 c 0.42647,-1.155607 0.78685,-2.32275 1.07774,-3.498714 v 0 c 3.86064,-15.607143 -1.3625,-36.642857 -9.5375,-47.5 v 0 C 97.191894,35.11675 96.7375,36.021286 96.7375,36.021286 v 0 C 96.7375,24.485571 81.75,6.8427143 66.7625,0.057 v 0 C 89.277131,81.040429 13.6141,108.26607 1.0579813,112.1855"
       id="path-9" />
    <path
       d="M 62.328601,10.07985 C 58.859797,8.0865667 40.035581,-4.9534833 0.4545,5.97985 v 0 L 101,39.690733 c 0,0 -9.554054,-24.6 -45.950223,-39.633333 v 0 c 3.867345,3.5307833 6.027926,6.3208333 7.278824,10.02245"
       id="path-11" />
    <linearGradient
       x1="44.309887"
       y1="31.654669"
       x2="49.147926"
       y2="22.991137"
       id="linearGradient-13"
       gradientTransform="scale(1.5927625,0.62784)"
       gradientUnits="userSpaceOnUse">
      <stop
         stop-color="#000000"
         stop-opacity="0"
         offset="0%"
         id="stop5" />
      <stop
         stop-color="#000000"
         offset="100%"
         id="stop6" />
    </linearGradient>
  </defs>
  <ellipse
     style="fill:#ffffff;fill-opacity:1;stroke-width:2.73533"
     id="path10"
     cx="133.5"
     cy="118.30503"
     rx="133.5"
     ry="118.30503"
     inkscape:export-filename="path10.svg"
     inkscape:export-xdpi="96"
     inkscape:export-ydpi="96" />
  <g
     id="Page-1"
     stroke="none"
     stroke-width="1"
     fill="none"
     fill-rule="evenodd"
     transform="translate(30,29.659669)">
    <g
       id="logo-2-copy-5"
       transform="translate(-134,-26)">
      <g
         id="shapes"
         transform="translate(134,26)">
        <path
           d="m 70,64 c 0,0 22.765666,5.803924 15.086847,36.28271 -6.904034,27.40214 7.28222,33.86371 15.342293,38.81969 1.51966,0.93396 2.9557,1.57562 4.17311,1.8976 0,0 33.92642,-62.284292 -34.60225,-77"
           id="Fill-1"
           fill="#272727" />
        <g
           id="Group-5"
           transform="translate(68,62)">
          <mask
             id="mask-2"
             fill="#ffffff">
            <use
               xlink:href="#path-1"
               id="use6" />
          </mask>
          <g
             id="Clip-4" />
          <path
             d="M 16.725534,40 C 9.8215008,67.046531 27.409186,74.538048 31.428375,76.127028 32.94803,77.049615 34.384069,77.682203 35.602247,78 35.602247,78 69.528666,16.524738 1,2 1,2 24.774492,8.8225417 17.094906,38.905797 Z"
             id="Fill-3"
             fill="url(#linearGradient-3)"
             mask="url(#mask-2)"
             style="fill:url(#linearGradient-3)" />
        </g>
        <g
           id="Group-8">
          <mask
             id="mask-5"
             fill="#ffffff">
            <use
               xlink:href="#path-4"
               id="use7" />
          </mask>
          <g
             id="Clip-7" />
          <path
             d="m 64.686819,12.944336 c -7.565487,-1.820964 -11.34823,-2.731445 -11.34823,-2.731445 0,0 2.042763,17.075063 0,26.605832 C 10.440563,51.795646 0,75.622569 0,75.622569 c 0,0 24.026299,-15.202938 64.686819,-10.211538 C 103.5,70.176415 103.5,108.98026 103.5,108.98026 c 0.11303,1.49157 0.16819,2.95863 0.16955,4.40117 0.0334,41.99666 -45.791261,62.99498 -45.791261,62.99498 80.348681,4.08462 105.770191,-42.88778 107.755761,-47.82403 -1.98625,23.77042 -13.4482,38.63365 -13.4482,38.63365 32.98178,-23.90657 41.49465,-48.42584 41.50487,-67.354626 0.0102,-20.150769 -9.61461,-33.9663 -9.61461,-33.9663 C 200.41754,72.218723 207,87.195646 207,87.195646 c 0,0 -9.5329,-55.142307 -58.55921,-78.2884614 -0.0926,-0.043569 -0.18249,-0.085777 -0.27577,-0.1293461 -0.11576,-0.054462 -0.23152,-0.1082423 -0.34727,-0.1620231 -13.07028,-6.0588462 -25.46917,-8.27543078 -36.61517,-8.27543078 -2.08634,0 -4.12774,0.0776077 -6.12284,0.22261153 C 77.99474,2.5283769 64.686819,12.944336 64.686819,12.944336 Z m 6.299201,21.491695 c 0,-1.97355 1.600845,-3.574039 3.574835,-3.574039 v 0 c 1.97399,0 3.574836,1.600489 3.574836,3.574039 v 0 c 0,1.97423 -1.600846,3.574038 -3.574836,3.574038 v 0 c -1.97399,0 -3.574835,-1.599808 -3.574835,-3.574038"
             id="Fill-6"
             fill="url(#linearGradient-6)"
             mask="url(#mask-5)"
             style="fill:url(#linearGradient-6)" />
        </g>
        <g
           id="Group-11">
          <mask
             id="mask-8"
             fill="#ffffff">
            <use
               xlink:href="#path-7"
               id="use8" />
          </mask>
          <g
             id="Clip-10" />
          <path
             d="m 57.197368,176.37641 c 0,0 91.924342,-24.50769 67.411182,-113.007687 14.98027,6.807692 29.96053,24.507692 29.96053,36.080769 0,0 0.45417,-0.907465 0.68092,-18.380769 8.17105,10.892308 13.39167,31.996157 9.53289,47.653847 -7.27291,29.5093 -57.87828,53.1 -107.585522,47.65384"
             id="Fill-9"
             fill="#000000"
             mask="url(#mask-8)" />
        </g>
        <g
           id="Group-14"
           transform="translate(58,64)">
          <mask
             id="mask-10"
             fill="#ffffff">
            <use
               xlink:href="#path-9"
               id="use9" />
          </mask>
          <g
             id="Clip-13" />
          <path
             d="M 1.0579813,112.1855 C 0.3746875,112.52886 0,112.69986 0,112.69986 v 0 c 70.260719,3.55843 98.54145,-31.760539 105.87851,-44.001289 v 0 c 0.42647,-1.155607 0.78685,-2.32275 1.07774,-3.498714 v 0 c 3.86064,-15.607143 -1.3625,-36.642857 -9.5375,-47.5 v 0 C 97.191894,35.11675 96.7375,36.021286 96.7375,36.021286 v 0 C 96.7375,24.485571 81.75,6.8427143 66.7625,0.057 v 0 C 89.277131,81.040429 13.6141,108.26607 1.0579813,112.1855"
             id="Fill-12"
             fill="#0f0f0f"
             mask="url(#mask-10)" />
        </g>
        <g
           id="Group-17"
           transform="translate(84,26)">
          <mask
             id="mask-12"
             fill="#ffffff">
            <use
               xlink:href="#path-11"
               id="use10" />
          </mask>
          <g
             id="Clip-16" />
          <path
             d="M 62.328601,10.07985 C 58.859797,8.0865667 40.035581,-4.9534833 0.4545,5.97985 v 0 L 101,39.690733 c 0,0 -9.554054,-24.6 -45.950223,-39.633333 v 0 c 3.867345,3.5307833 6.027926,6.3208333 7.278824,10.02245"
             id="Fill-15"
             fill="url(#linearGradient-13)"
             mask="url(#mask-12)"
             style="fill:url(#linearGradient-13)" />
        </g>
      </g>
    </g>
  </g>
</svg>
