<?xml version="1.0" encoding="UTF-8"?>
<svg width="36px" height="32px" viewBox="0 0 36 32" version="1.1" xmlns="http://www.w3.org/2000/svg" xmlns:xlink="http://www.w3.org/1999/xlink">
    <title>Group</title>
    <defs>
        <path d="M2.99862604,6.82269429 C1.8150758,11.60837 4.19645094,12.6947478 5.45579569,13.408705 C5.71630825,13.5719497 5.9624867,13.6838813 6.17131757,13.740113 C6.17131757,13.740113 12.0699383,2.74619606 0.322150149,0.176155295 L0,0.236930293 C0,0.236930293 4.3731329,1.30599706 3.05663052,6.62899776 L2.99862604,6.82269429 Z" id="path-1"></path>
        <linearGradient x1="46.5619887%" y1="59.2446653%" x2="70.1343048%" y2="41.2544826%" id="linearGradient-3">
            <stop stop-color="#000000" stop-opacity="0" offset="0%"></stop>
            <stop stop-color="#000000" offset="100%"></stop>
        </linearGradient>
        <path d="M11.2498816,2.31857526 C10.3258501,3.11942902 9.44453677,5.69065114 9.27627632,6.48581302 C1.81575,9.12407732 0,13.321316 0,13.321316 C0,13.321316 4.17848684,10.6432379 11.2498816,11.5224994 C18,12.3619471 18,19.1974501 18,19.1974501 C18.0196579,19.4601972 18.02925,19.7186272 18.0294868,19.97274 C18.0352895,27.370673 10.0657895,31.0696394 10.0657895,31.0696394 C24.0394737,31.7891661 28.4606053,23.5147298 28.8059211,22.6451819 C28.4604868,26.8324671 26.4671053,29.4507045 26.4671053,29.4507045 C32.2030658,25.2394351 33.6835658,20.9202367 33.6853421,17.5858304 C33.6871184,14.0361657 32.0132368,11.6024868 32.0132368,11.6024868 C34.8552237,12.7217105 36,15.3599748 36,15.3599748 C36,15.3599748 34.3421053,5.64636529 25.8157895,1.56904773 C25.7996842,1.56137278 25.7840526,1.55393767 25.7678289,1.54626272 C25.7476974,1.53666903 25.7275658,1.52719527 25.7074342,1.5177215 C23.4343421,0.450423669 21.2780132,0.0599605523 19.3395789,0.0599605523 C18.9767368,0.0599605523 18.6217105,0.0736315582 18.2747368,0.0991747535 C15.7952681,0.281413243 12.173913,1.5177215 11.2498816,2.31857526 Z M12.3453947,6.06608915 C12.3453947,5.71843787 12.6238026,5.43650335 12.9671053,5.43650335 L12.9671053,5.43650335 C13.3104079,5.43650335 13.5888158,5.71843787 13.5888158,6.06608915 L13.5888158,6.06608915 C13.5888158,6.41386036 13.3104079,6.69567495 12.9671053,6.69567495 L12.9671053,6.69567495 C12.6238026,6.69567495 12.3453947,6.41386036 12.3453947,6.06608915" id="path-4"></path>
        <linearGradient x1="52.0502791%" y1="38.9709097%" x2="50%" y2="85.165639%" id="linearGradient-6">
            <stop stop-color="#FFFFFF" offset="0%"></stop>
            <stop stop-color="#A5A5A5" offset="100%"></stop>
        </linearGradient>
        <path d="M9.27627632,6.48581302 C1.81575,9.12407732 0,13.321316 0,13.321316 C0,13.321316 4.17848684,10.6432379 11.2498816,11.5224994 C18,12.3619471 18,19.1974501 18,19.1974501 C18.5921053,27.112243 10.0657895,31.0696394 10.0657895,31.0696394 C24.0394737,31.7891661 28.4606053,23.5147298 28.8059211,22.6451819 C28.4604868,26.8324671 26.4671053,29.4507045 26.4671053,29.4507045 C38.3092105,20.7564245 32.0132368,11.6024868 32.0132368,11.6024868 C34.8552237,12.7217105 36,15.3599748 36,15.3599748 C36,15.3599748 34.3421053,5.64636529 25.8157895,1.56904773 C23.5025526,0.462895464 21.3089211,0.0599605255 19.3395789,0.0599605255 C14.0500658,0.0599605255 9.63153947,4.80691755 9.27627632,6.48581302 Z" id="path-7"></path>
        <path d="M0.183996739,19.7620698 C0.0651630435,19.822554 0,19.8526766 0,19.8526766 L0,19.8526766 C12.2192554,20.4795126 17.1376435,14.25789 18.4136543,12.1016171 L18.4136543,12.1016171 C18.4878217,11.8980508 18.5504967,11.6924524 18.601087,11.4853001 L18.601087,11.4853001 C19.2725033,8.7360192 18.3641304,5.03046675 16.9423913,3.11792355 L16.9423913,3.11792355 C16.902938,6.18600145 16.823913,6.3453402 16.823913,6.3453402 L16.823913,6.3453402 C16.823913,4.31326305 14.2173913,1.20538035 11.6108696,0.0100408518 L11.6108696,0.0100408518 C15.5264576,14.2757006 2.36766957,19.0716417 0.183996739,19.7620698" id="path-9"></path>
        <path d="M10.8397568,1.77561895 C10.2364865,1.42449154 6.96270975,-0.872582317 0.0790434783,1.05338224 L0.0790434783,1.05338224 L17.5652174,6.99173283 C17.5652174,6.99173283 15.9036428,2.65831258 9.57387427,0.0101113139 L9.57387427,0.0101113139 C10.2464559,0.632077493 10.6222092,1.12355957 10.8397568,1.77561895" id="path-11"></path>
        <linearGradient x1="69.7401938%" y1="50%" x2="77.4042296%" y2="35.9197473%" id="linearGradient-13">
            <stop stop-color="#000000" stop-opacity="0" offset="0%"></stop>
            <stop stop-color="#000000" offset="100%"></stop>
        </linearGradient>
    </defs>
    <g id="Page-1" stroke="none" stroke-width="1" fill="none" fill-rule="evenodd">
        <g id="logo-2-copy-5" transform="translate(-254, -311)">
            <g id="shapes" transform="translate(254, 311)">
                <path d="M12.173913,11.2739389 C12.173913,11.2739389 16.1331592,12.2963309 14.7977125,17.6653304 C13.597011,22.4923617 16.0641856,23.6306024 17.4659378,24.5036247 C17.7302255,24.668146 17.9799714,24.7811789 18.1916951,24.8378966 C18.1916951,24.8378966 24.0919419,13.8661887 12.173913,11.2739389" id="Fill-1" fill="#FFFFFF"></path>
                <g id="Group-5" transform="translate(11.8261, 10.9216)">
                    <mask id="mask-2" fill="white">
                        <use xlink:href="#path-1"></use>
                    </mask>
                    <g id="Clip-4"></g>
                    <path d="M2.90878851,7.04621179 C1.70808709,11.8106014 4.76681501,13.1302718 5.46580441,13.410179 C5.73009213,13.5726976 5.97983802,13.6841314 6.19169512,13.740113 C6.19169512,13.740113 12.0919419,2.91092014 0.173913043,0.35231059 C0.173913043,0.35231059 4.30860739,1.55413743 2.97302719,6.85346209 L2.90878851,7.04621179 Z" id="Fill-3" fill="url(#linearGradient-3)" mask="url(#mask-2)"></path>
                </g>
                <g id="Group-8">
                    <mask id="mask-5" fill="white">
                        <use xlink:href="#path-4"></use>
                    </mask>
                    <g id="Clip-7"></g>
                    <path d="M11.2498816,2.28021331 C9.93414474,1.95944094 9.27627632,1.79905476 9.27627632,1.79905476 C9.27627632,1.79905476 9.63153947,4.80691755 9.27627632,6.48581302 C1.81575,9.12407732 0,13.321316 0,13.321316 C0,13.321316 4.17848684,10.6432379 11.2498816,11.5224994 C18,12.3619471 18,19.1974501 18,19.1974501 C18.0196579,19.4601972 18.02925,19.7186272 18.0294868,19.97274 C18.0352895,27.370673 10.0657895,31.0696394 10.0657895,31.0696394 C24.0394737,31.7891661 28.4606053,23.5147298 28.8059211,22.6451819 C28.4604868,26.8324671 26.4671053,29.4507045 26.4671053,29.4507045 C32.2030658,25.2394351 33.6835658,20.9202367 33.6853421,17.5858304 C33.6871184,14.0361657 32.0132368,11.6024868 32.0132368,11.6024868 C34.8552237,12.7217105 36,15.3599748 36,15.3599748 C36,15.3599748 34.3421053,5.64636529 25.8157895,1.56904773 C25.7996842,1.56137278 25.7840526,1.55393767 25.7678289,1.54626272 C25.7476974,1.53666903 25.7275658,1.52719527 25.7074342,1.5177215 C23.4343421,0.450423669 21.2780132,0.0599605523 19.3395789,0.0599605523 C18.9767368,0.0599605523 18.6217105,0.0736315582 18.2747368,0.0991747535 C13.5643026,0.445386982 11.2498816,2.28021331 11.2498816,2.28021331 Z M12.3453947,6.06608915 C12.3453947,5.71843787 12.6238026,5.43650335 12.9671053,5.43650335 L12.9671053,5.43650335 C13.3104079,5.43650335 13.5888158,5.71843787 13.5888158,6.06608915 L13.5888158,6.06608915 C13.5888158,6.41386036 13.3104079,6.69567495 12.9671053,6.69567495 L12.9671053,6.69567495 C12.6238026,6.69567495 12.3453947,6.41386036 12.3453947,6.06608915" id="Fill-6" fill="url(#linearGradient-6)" mask="url(#mask-5)"></path>
                </g>
                <g id="Group-11">
                    <mask id="mask-8" fill="white">
                        <use xlink:href="#path-7"></use>
                    </mask>
                    <g id="Clip-10"></g>
                    <path d="M9.94736842,31.0696394 C9.94736842,31.0696394 25.9342105,26.7524797 21.6710526,11.1627361 C24.2763158,12.3619471 26.8815789,15.4798959 26.8815789,17.5185546 C26.8815789,17.5185546 26.9605658,17.3586998 27,14.2806848 C28.4210526,16.1994225 29.3289868,19.9169767 28.6578947,22.6751621 C27.3930395,27.8733822 18.5921053,32.0290083 9.94736842,31.0696394" id="Fill-9" fill="#E3E3E3" mask="url(#mask-8)"></path>
                </g>
                <g id="Group-14" transform="translate(10.087, 11.2739)">
                    <mask id="mask-10" fill="white">
                        <use xlink:href="#path-9"></use>
                    </mask>
                    <g id="Clip-13"></g>
                    <path d="M0.183996739,19.7620698 C0.0651630435,19.822554 0,19.8526766 0,19.8526766 L0,19.8526766 C12.2192554,20.4795126 17.1376435,14.25789 18.4136543,12.1016171 L18.4136543,12.1016171 C18.4878217,11.8980508 18.5504967,11.6924524 18.601087,11.4853001 L18.601087,11.4853001 C19.2725033,8.7360192 18.3641304,5.03046675 16.9423913,3.11792355 L16.9423913,3.11792355 C16.902938,6.18600145 16.823913,6.3453402 16.823913,6.3453402 L16.823913,6.3453402 C16.823913,4.31326305 14.2173913,1.20538035 11.6108696,0.0100408518 L11.6108696,0.0100408518 C15.5264576,14.2757006 2.36766957,19.0716417 0.183996739,19.7620698" id="Fill-12" fill="#E3E3E3" mask="url(#mask-10)"></path>
                </g>
                <g id="Group-17" transform="translate(14.6087, 4.58)">
                    <mask id="mask-12" fill="white">
                        <use xlink:href="#path-11"></use>
                    </mask>
                    <g id="Clip-16"></g>
                    <path d="M10.8397568,1.77561895 C10.2364865,1.42449154 6.96270975,-0.872582317 0.0790434783,1.05338224 L0.0790434783,1.05338224 L17.5652174,6.99173283 C17.5652174,6.99173283 15.9036428,2.65831258 9.57387427,0.0101113139 L9.57387427,0.0101113139 C10.2464559,0.632077493 10.6222092,1.12355957 10.8397568,1.77561895" id="Fill-15" fill="url(#linearGradient-13)" mask="url(#mask-12)"></path>
                </g>
            </g>
        </g>
    </g>
</svg>
